<svg width="25px" height="25px" viewBox="0 0 25 22" fill="none" xmlns="http://www.w3.org/2000/svg">
  <path d="M3 6.99C8.814 4.88 15.186 4.88 21 6.99" stroke="#000000" stroke-width="2" stroke-linecap="round" stroke-linejoin="round"/>
  <path d="M8.01 5.72C8.01 4.66 8.43 3.64 9.18 2.89A4.001 4.001 0 0 1 12 1.72c1.06 0 2.08.42 2.83 1.17.75.75 1.17 1.77 1.17 2.83" stroke="#000000" stroke-width="2" stroke-linecap="round" stroke-linejoin="round"/>
  <path d="M12 13v5" stroke="#000000" stroke-width="2" stroke-linecap="round" stroke-linejoin="round"/>
  <path d="M19 9.99l-.67 8C18.22 19.07 17.72 20.08 16.92 20.81c-.8.74-1.84 1.16-2.92 1.18H10c-1.08-.02-2.12-.44-2.92-1.18-.8-.73-1.3-1.74-1.41-2.81l-.67-8" stroke="#000000" stroke-width="2" stroke-linecap="round" stroke-linejoin="round"/>
</svg>
